<?xml version="1.0" encoding="iso-8859-1"?>
<!-- Generator: Adobe Illustrator 19.0.0, SVG Export Plug-In . SVG Version: 6.00 Build 0)  -->
<svg version="1.1" id="Capa_1" xmlns="http://www.w3.org/2000/svg" xmlns:xlink="http://www.w3.org/1999/xlink" x="0px" y="0px"
	 viewBox="0 0 512 512" style="enable-background:new 0 0 512 512;" xml:space="preserve">
<path style="fill:#ECF2FF;" d="M295.378,353.421l-118.379,40.576L58.62,353.421c-12.935-4.434-21.625-16.597-21.625-30.272V86.002
	c0-11.046,8.954-20.001,20.001-20.001h240.006c11.046,0,20.001,8.954,20.001,20.001v237.147
	C317.003,336.824,308.313,348.987,295.378,353.421z"/>
<path style="fill:#FE7C7A;" d="M58.62,353.421l118.379,40.576l118.378-40.576c12.936-4.434,21.626-16.597,21.626-30.272V144.983
	l-3.206-1.911c0,0-62.002,35.92-136.797,9.919s-140.004,7.333-140.004,7.333v162.825C36.995,336.824,45.685,348.987,58.62,353.421z"
	/>
<path style="fill:#C7DAFF;" d="M201,386.497v37.501c0,13.255-10.745,24.001-24.001,24.001l0,0
	c-13.255,0-24.001-10.745-24.001-24.001v-37.501H201z"/>
<path style="fill:#FE7C7A;" d="M416.004,152.754c25.258,0,45.733-22.492,45.733-47.927c0-40.794-45.733-77.076-45.733-77.076
	s-45.733,36.282-45.733,77.076C370.271,130.262,390.746,152.754,416.004,152.754z"/>
<path style="fill:#FEA3A2;" d="M455.005,447.998L455.005,447.998c-11.046,0-20.001-8.954-20.001-20.001v-39.001
	c0-11.046,8.954-20.001,20.001-20.001l0,0c11.046,0,20,8.954,20,20.001v39.001C475.006,439.044,466.051,447.998,455.005,447.998z"/>
<path d="M269,292.653c5.522,0,10-4.477,10-10v-83.335c0-5.523-4.478-10-10-10s-10,4.477-10,10v83.335
	C259,288.175,263.478,292.653,269,292.653z"/>
<path d="M269,330.654c2.63,0,5.21-1.07,7.069-2.93c1.86-1.86,2.931-4.44,2.931-7.07s-1.07-5.21-2.931-7.07
	c-1.859-1.86-4.439-2.93-7.069-2.93s-5.21,1.07-7.07,2.93c-1.86,1.86-2.93,4.44-2.93,7.07s1.069,5.21,2.93,7.07
	C263.79,329.585,266.371,330.654,269,330.654z"/>
<path d="M455.005,358.996c-16.542,0-30.001,13.458-30.001,30.001v39.001c0,13.036,8.361,24.153,20,28.281V502
	c0,5.523,4.478,10,10,10c5.522,0,10-4.477,10-10v-45.721c11.639-4.128,20.001-15.243,20.001-28.281v-39.001
	C485.006,372.454,471.547,358.996,455.005,358.996z M465.005,427.998c0,5.514-4.486,10-10,10c-5.514,0-10-4.486-10-10v-39.001
	c0-5.514,4.486-10,10-10c5.514,0,10,4.486,10,10V427.998z"/>
<path d="M445.005,240.993v91.002c0,5.523,4.478,10,10,10c5.522,0,10-4.477,10-10v-91.002c0-27.02-21.982-49.001-49.001-49.001
	c-27.02,0-49.001,21.982-49.001,49.001v199.505c0,28.398-23.104,51.501-51.501,51.501c-28.398,0-51.501-23.104-51.501-51.501
	v-65.751l34.619-11.866c16.977-5.819,28.383-21.786,28.383-39.732V86.002c0-16.542-13.458-30.001-30.001-30.001h-86.545
	c2.896-5.361,4.543-11.491,4.543-18C214.999,17.047,197.952,0,176.998,0s-38.001,17.047-38.001,38.001
	c0,6.509,1.647,12.639,4.543,18H56.995c-16.542,0-30.001,13.458-30.001,30.001v237.147c0,17.945,11.406,33.913,28.384,39.732
	l87.619,30.033v31.084c0,18.748,15.252,34.001,34.001,34.001s34.001-15.252,34.001-34.001v-31.084L244,381.603v58.896
	C244,479.924,276.076,512,315.501,512s71.502-32.076,71.502-71.502V240.993c0-15.991,13.01-29.001,29.001-29.001
	C431.994,211.992,445.005,225.002,445.005,240.993z M158.998,38.001c0-9.925,8.075-18,18-18c9.925,0,18,8.075,18,18s-8.075,18-18,18
	C167.073,56.001,158.998,47.926,158.998,38.001z M56.995,76.002h240.006c5.514,0,10,4.486,10,10v49.368
	c-10.286,5.285-63.858,30.028-126.72,8.174c-57.47-19.977-109.036-6.993-133.286,1.781V86.002
	C46.995,80.488,51.482,76.002,56.995,76.002z M46.995,323.149v-9.154h22.738c5.522,0,10-4.477,10-10s-4.478-10-10-10H46.995v-28.001
	h22.738c5.522,0,10-4.477,10-10c0-5.523-4.478-10-10-10H46.995v-28.001h22.738c5.522,0,10-4.477,10-10s-4.478-10-10-10H46.995
	v-31.19c16.574-6.841,68.781-24.507,126.72-4.365c21.176,7.36,41.319,10.066,59.495,10.065c32.945,0,59.398-8.885,73.792-15.049
	v165.696c0,9.4-5.975,17.764-14.866,20.812l-115.137,39.464L61.863,343.961C52.97,340.913,46.995,332.549,46.995,323.149z
	 M190.998,423.998c0,7.72-6.28,14-14,14s-14-6.28-14-14v-24.229l10.758,3.687c1.051,0.36,2.146,0.541,3.242,0.541
	s2.191-0.18,3.242-0.54l10.758-3.687V423.998z"/>
<path d="M416.004,162.754c30.211,0,55.732-26.528,55.732-57.927c0-45.107-47.495-83.306-49.518-84.91
	c-3.641-2.889-8.791-2.888-12.43,0c-2.022,1.604-49.519,39.802-49.519,84.91C360.271,136.227,385.793,162.754,416.004,162.754z
	 M416.015,41.071c11.684,10.93,35.722,36.708,35.722,63.756c0,20.559-16.363,37.927-35.732,37.927
	c-19.369,0-35.733-17.368-35.733-37.927C380.271,77.877,404.34,52.024,416.015,41.071z"/>
<g>
</g>
<g>
</g>
<g>
</g>
<g>
</g>
<g>
</g>
<g>
</g>
<g>
</g>
<g>
</g>
<g>
</g>
<g>
</g>
<g>
</g>
<g>
</g>
<g>
</g>
<g>
</g>
<g>
</g>
</svg>
